<?xml version='1.0' encoding='UTF-8'?>
<svg x="0px" y="0px" viewBox="0 0 32 32" version="1.1" xmlns="http://www.w3.org/2000/svg" xmlns:xlink="http://www.w3.org/1999/xlink" enable-background="new 0 0 32 32" xml:space="preserve" id="Layer_1">
  <g id="EditExtractSource">
    <path d="M16,17c0,0.5-0.5,1-1,1H6v7c0,1.5,3.1,2.7,7.2,2.9L24,17.2V9c0-1.5-3.5-2.8-8-3V17z" fill="#FFB115" class="Yellow" />
    <path d="M29,23l-8,8l-4-4l8-8L29,23z M30,22l1.7-1.7c0.4-0.4,0.4-1,0-1.3L29,16.3c-0.4-0.4-1-0.4-1.3,0L26,18L30,22z    M16,28v4h4L16,28z" fill="#1177D7" class="Blue" />
    <path d="M12,10.8V14H2V4h8.2l2-2H1C0.5,2,0,2.5,0,3v12c0,0.5,0.5,1,1,1h12c0.5,0,1-0.5,1-1V8.8L12,10.8z" fill="#727272" class="Black" />
    <polygon points="4,5 4,8 8,12 16,4 16,1 8,9  " fill="#039C23" class="Green" />
  </g>
</svg>